<?xml version="1.0" encoding="UTF-8" standalone="no"?><!DOCTYPE svg PUBLIC "-//W3C//DTD SVG 1.1//EN" "http://www.w3.org/Graphics/SVG/1.1/DTD/svg11.dtd"><!-- Uploaded to: SVG Repo, www.svgrepo.com, Generator: SVG Repo Mixer Tools -->
<svg fill="#000000" width="800px" height="800px" viewBox="0 0 32 32" version="1.1" xmlns="http://www.w3.org/2000/svg" xmlns:xlink="http://www.w3.org/1999/xlink" xml:space="preserve" xmlns:serif="http://www.serif.com/" style="fill-rule:evenodd;clip-rule:evenodd;stroke-linejoin:round;stroke-miterlimit:2;"><path d="M25.229,14.5l-16.003,0c-0.828,-0 -1.5,0.672 -1.5,1.5c-0,0.828 0.672,1.5 1.5,1.5l16.038,0l-3.114,3.114c-0.585,0.585 -0.585,1.536 0,2.121c0.586,0.586 1.536,0.586 2.122,0c-0,0 2.567,-2.567 4.242,-4.242c1.367,-1.367 1.367,-3.583 0,-4.95l-4.242,-4.243c-0.586,-0.585 -1.536,-0.585 -2.122,0c-0.585,0.586 -0.585,1.536 0,2.122l3.079,3.078Z"/><path d="M20,24l-0,-4.5l-10.774,0c-1.932,-0 -3.5,-1.568 -3.5,-3.5c-0,-1.932 1.568,-3.5 3.5,-3.5l10.774,0l-0,-4.5c-0,-2.761 -2.239,-5 -5,-5c-2.166,-0 -4.834,0 -7,-0c-1.326,-0 -2.598,0.527 -3.536,1.464c-0.937,0.938 -1.464,2.21 -1.464,3.536c-0,4.439 -0,11.561 0,16c-0,1.326 0.527,2.598 1.464,3.536c0.938,0.937 2.21,1.464 3.536,1.464c2.166,0 4.834,0 7,0c1.326,0 2.598,-0.527 3.536,-1.464c0.937,-0.938 1.464,-2.21 1.464,-3.536Z"/></svg>